<svg version="1.0" xmlns="http://www.w3.org/2000/svg"
 width="476.000000pt" height="287.000000pt" viewBox="0 0 476.000000 287.000000"
 preserveAspectRatio="xMidYMid meet">

<g transform="translate(0.000000,287.000000) scale(0.100000,-0.100000)"
fill="#1F2024" stroke="none">
<path d="M290 2844 c-112 -30 -193 -98 -244 -204 l-31 -65 0 -1150 0 -1150 33
-67 c59 -120 168 -189 302 -191 158 -3 303 101 367 263 16 41 18 104 23 705 5
620 6 660 23 663 12 2 125 -102 358 -330 395 -387 403 -393 549 -393 89 0 128
11 190 52 22 14 167 200 385 491 193 257 357 468 366 470 10 2 85 -78 205
-219 251 -296 238 -277 217 -308 -9 -14 -111 -154 -228 -311 -289 -388 -382
-522 -424 -610 -30 -64 -35 -85 -35 -145 0 -157 98 -266 272 -304 37 -8 321
-11 952 -11 885 0 900 0 955 21 175 65 268 277 193 440 -33 72 -87 124 -168
163 l-65 31 -555 5 c-546 5 -555 5 -558 25 -1 14 52 83 164 215 261 306 294
356 309 460 9 59 -17 171 -54 235 -16 28 -120 155 -230 284 -111 129 -201 237
-201 241 0 27 46 29 576 32 l549 3 62 29 c73 33 144 104 176 174 31 66 31 197
1 263 -45 97 -136 170 -243 195 -73 18 -1823 20 -1917 3 -72 -13 -140 -49
-186 -98 -19 -20 -189 -246 -377 -503 -188 -258 -348 -468 -355 -468 -7 0
-240 224 -518 499 -278 274 -525 510 -549 524 -51 30 -147 57 -199 56 -19 0
-60 -7 -90 -15z"/>
</g>
</svg>
